<svg xmlns="http://www.w3.org/2000/svg" shape-rendering="geometricPrecision" text-rendering="geometricPrecision" image-rendering="optimizeQuality" fill-rule="evenodd" clip-rule="evenodd" viewBox="0 0 469 512.4"><path fill-rule="nonzero" d="M191.83 93.36c27.85 0 53.07 11.3 71.3 29.54 18.24 18.23 29.54 43.45 29.54 71.3 0 27.84-11.3 53.06-29.54 71.3-18.23 18.23-43.45 29.53-71.3 29.53-27.84 0-53.06-11.3-71.3-29.53C102.3 247.26 91 222.04 91 194.2c0-27.85 11.3-53.07 29.53-71.3 18.24-18.24 43.46-29.54 71.3-29.54zM320.2 380.55c.1-2.42 1.65-4.53 3.94-5.32-.28-4.58-.85-11.52.41-15.93 1.42-4.62 4.51-8.58 8.68-11.04 1.5-.91 3.07-1.68 4.73-2.27 3.01-1.08 1.51-6.1 4.78-6.16 7.66-.22 20.25 6.79 25.15 12.11 3.13 3.46 4.92 7.93 5.02 12.58l-.32 11.22c1.48.32 2.68 1.36 3.23 2.76 1.62 6.6-14.47 22.19-14.47 23.87.04.57.28 1.12.65 1.55 11.17 15.36 41.25 8.51 41.25 39.03H292.73c0-30.54 30.09-23.67 41.25-39.01.55-.81.81-1.26.79-1.59 0-1.5-14.57-16.41-14.57-21.8zm27.78-110.17c33.4 0 63.68 13.55 85.58 35.44l.61.65c21.52 21.84 34.83 51.85 34.83 84.91 0 33.35-13.57 63.64-35.44 85.54-21.94 21.91-52.22 35.48-85.58 35.48-33.37 0-63.62-13.57-85.52-35.44-21.93-21.9-35.48-52.19-35.48-85.58 0-33.4 13.55-63.66 35.44-85.56 21.9-21.89 52.17-35.44 85.56-35.44zm69.08 51.94c-17.67-17.66-42.12-28.59-69.08-28.59s-51.39 10.93-69.05 28.59c-17.67 17.67-28.6 42.1-28.6 69.06s10.93 51.41 28.6 69.07c17.64 17.65 42.09 28.6 69.05 28.6 26.98 0 51.43-10.95 69.1-28.58 17.62-17.66 28.57-42.11 28.57-69.09 0-26.7-10.73-50.94-28.06-68.56l-.53-.5zM197.54 485.85c7.56-4.8 14.91-9.9 22.02-15.28a150.03 150.03 0 0 0 13.51 18.57 359.729 359.729 0 0 1-28.85 19.58c-3.7 2.73-8.88 3.07-13 .47-44.91-28.51-82.6-62.95-112.29-100.21C38.05 357.67 12.25 300.76 3.43 246c-8.96-55.54-.53-109.01 27.1-152.5 11-17.21 24.91-32.87 41.86-46.35C111.38 16.07 156-.37 200.3.01c42.67.35 84.95 16.26 121.47 49.6 12.8 11.69 23.59 24.97 32.37 39.46 26.57 43.85 34.52 98.59 26.55 154.98-7.39-1.63-14.99-2.71-22.73-3.23 7.27-51.33.26-100.75-23.43-139.86a155.885 155.885 0 0 0-28.23-34.34c-32.14-29.32-69.1-43.36-106.2-43.65-38.98-.32-78.52 14.37-113.41 42.17-14.97 11.92-27.2 25.64-36.75 40.67-24.49 38.63-31.9 86.52-23.82 136.61 8.21 50.88 32.41 104.06 70.8 152.27 26.78 33.59 60.51 64.8 100.62 91.16zm49.33-346.69c-14.06-14.06-33.55-22.8-55.04-22.8-21.48 0-40.97 8.74-55.03 22.8-14.06 14.06-22.8 33.55-22.8 55.04 0 21.48 8.74 40.97 22.8 55.03 14.06 14.06 33.55 22.8 55.03 22.8 21.49 0 40.98-8.74 55.04-22.8 14.06-14.06 22.8-33.55 22.8-55.03 0-21.49-8.74-40.98-22.8-55.04z"/></svg>